<svg width="150px" height="80px" viewBox="0 0 360 290" fill="none" xmlns="http://www.w3.org/2000/svg">
<path d="M3.06137 124.497H9.7132V64.7634H3.06137V42.8123H57.0742C71.8856 42.8123 83.6372 46.8921 92.3289 55.0517C101.109 63.1226 105.5 76.2932 105.5 94.5636C105.5 112.834 101.109 126.049 92.3289 134.208C83.6372 142.279 71.8856 146.315 57.0742 146.315H3.06137V124.497ZM54.6796 124.497C57.6951 124.497 59.9567 123.699 61.4644 122.102C62.9722 120.506 63.7261 118.022 63.7261 114.652V74.4751C63.7261 67.9119 60.7106 64.6303 54.6796 64.6303H46.9634V124.497H54.6796ZM153.354 148.177C140.76 148.177 130.915 144.896 123.82 138.333C116.725 131.681 113.177 122.013 113.177 109.331C113.177 96.6478 116.725 87.0248 123.82 80.4617C130.915 73.8099 140.76 70.484 153.354 70.484C165.86 70.484 174.862 73.7655 180.361 80.3287C185.948 86.8031 188.742 94.874 188.742 104.541V114.12H145.638V114.918C145.638 118.2 146.614 120.639 148.565 122.235C150.516 123.743 153.753 124.497 158.277 124.497C163.687 124.497 168.831 124.098 173.709 123.299C178.587 122.501 182.844 121.481 186.48 120.24V141.526C183.376 143.211 178.809 144.763 172.778 146.182C166.835 147.512 160.361 148.177 153.354 148.177ZM161.07 99.4859V97.8895C161.07 94.874 160.405 92.7011 159.075 91.3707C157.833 90.0403 155.926 89.3752 153.354 89.3752C150.782 89.3752 148.831 90.0847 147.501 91.5037C146.259 92.8341 145.638 94.9627 145.638 97.8895V99.4859H161.07Z" fill="black"/>
<path d="M2.52922 235.56H7.85068V187.667H2.52922V170.212H51.3803C60.5332 170.212 67.522 172.093 72.3468 175.853C77.1716 179.614 79.584 185.716 79.584 194.159C79.584 198.913 78.6261 203.028 76.7104 206.505C74.7947 209.982 72.063 212.394 68.5154 213.742L68.6218 214.806C75.4333 215.871 78.839 220.057 78.839 227.365V235.56H83.8412V253.014H50.1031V228.004C50.1031 225.236 49.6774 223.143 48.826 221.724C48.0455 220.305 46.7683 219.347 44.9945 218.851C43.2916 218.354 40.8438 218.106 37.6509 218.106V235.56H44.6752V253.014H2.52922V235.56ZM43.3981 205.121C45.4557 205.121 46.9812 204.589 47.9745 203.525C49.0388 202.39 49.571 200.651 49.571 198.31V194.478C49.571 192.137 49.0388 190.434 47.9745 189.37C46.9812 188.234 45.4557 187.667 43.3981 187.667H37.6509V205.121H43.3981ZM208.301 203.206V195.543C208.301 192.846 207.698 190.86 206.492 189.583C205.286 188.305 203.476 187.667 201.064 187.667C198.651 187.667 196.842 188.305 195.636 189.583C194.43 190.86 193.827 192.846 193.827 195.543V227.684C193.827 230.38 194.43 232.367 195.636 233.644C196.842 234.921 198.651 235.56 201.064 235.56C203.476 235.56 205.286 234.921 206.492 233.644C207.698 232.367 208.301 230.38 208.301 227.684V219.063H233.844V246.629C231.361 248.332 227.742 249.928 222.988 251.418C218.234 252.908 213.019 253.866 207.343 254.292V257.165C210.536 257.165 213.126 258.017 215.113 259.719C217.099 261.422 218.093 263.906 218.093 267.169C218.093 271.001 216.744 273.945 214.048 276.003C211.423 278.132 207.769 279.196 203.086 279.196C199.042 279.196 194.678 278.557 189.995 277.28V269.724C194.323 270.717 198.297 271.214 201.915 271.214C203.122 271.214 204.008 270.895 204.576 270.256C205.215 269.617 205.534 268.801 205.534 267.808C205.534 266.815 205.215 265.999 204.576 265.36C204.008 264.722 203.122 264.402 201.915 264.402H197.232V254.292C172.683 252.66 160.408 238.434 160.408 211.613C160.408 183.019 174.315 168.722 202.128 168.722C208.869 168.722 215.113 169.538 220.86 171.17C226.678 172.802 231.006 174.612 233.844 176.598V203.206H208.301ZM319.166 235.56H323.423V253.014H281.703V235.56H288.089L286.386 227.046H271.912L270.209 235.56H276.595V253.014H240.196V235.56H244.453L262.439 170.212H301.18L319.166 235.56ZM274.253 215.764H284.045L279.681 194.585H278.617L274.253 215.764Z" fill="black"/>
<g clip-path="url(#clip0)">
<path d="M121.797 172.948C104.805 172.948 91.8633 206.207 91.8633 222.851C91.8633 239.347 105.292 252.77 121.797 252.77C138.301 252.77 151.73 239.347 151.73 222.851C151.73 206.207 138.788 172.948 121.797 172.948Z" fill="#303C42"/>
<path d="M121.796 249.445C107.125 249.445 95.1891 237.515 95.1891 222.851C95.1891 207.111 107.236 176.272 121.796 176.272C136.357 176.272 148.404 207.111 148.404 222.851C148.404 237.515 136.467 249.445 121.796 249.445Z" fill="#FFE0B2"/>
<path opacity="0.1" d="M121.797 176.272C132.717 176.272 141.752 207.111 141.752 222.851C141.752 237.515 132.8 249.445 121.797 249.445C136.468 249.445 148.404 237.515 148.404 222.851C148.404 207.111 136.357 176.272 121.797 176.272Z" fill="black"/>
<path opacity="0.2" d="M101.841 222.851C101.841 207.111 110.876 176.272 121.796 176.272C107.236 176.272 95.1891 207.111 95.1891 222.851C95.1891 237.515 107.125 249.445 121.796 249.445C110.793 249.445 101.841 237.515 101.841 222.851Z" fill="white"/>
<path d="M121.797 172.948C104.805 172.948 91.8633 206.207 91.8633 222.851C91.8633 239.347 105.292 252.77 121.797 252.77C138.301 252.77 151.73 239.347 151.73 222.851C151.73 206.207 138.788 172.948 121.797 172.948Z" fill="url(#paint0_linear)"/>
</g>
<g clip-path="url(#clip1)">
<path d="M259.462 63.8115C239.429 63.8115 223.131 80.1095 223.131 100.142C223.131 120.175 239.429 136.473 259.462 136.473C279.495 136.473 295.793 120.175 295.793 100.142C295.793 80.1095 279.495 63.8115 259.462 63.8115ZM259.462 127.314C244.479 127.314 232.29 115.125 232.29 100.142C232.29 85.1598 244.479 72.9706 259.462 72.9706C274.445 72.9706 286.634 85.1598 286.634 100.142C286.634 115.125 274.445 127.314 259.462 127.314Z" fill="#A9021E"/>
<path d="M355.397 4.20613C349.789 -1.40135 340.712 -1.40257 335.104 4.20613L314.074 25.2359C309.611 29.6985 308.712 36.3917 311.369 41.7577L295.595 57.5311C285.502 48.9512 272.783 44.2721 259.308 44.2721C228.232 44.2721 203.285 69.2092 203.285 100.295C203.285 131.37 228.222 156.318 259.308 156.318C290.383 156.318 315.331 131.381 315.331 100.295C315.331 86.8199 310.652 74.1014 302.072 64.0078L317.845 48.2343C323.289 50.9292 329.959 49.9373 334.367 45.5291L355.397 24.4989C360.991 18.904 360.991 9.80079 355.397 4.20613ZM292.49 133.477C274.231 151.736 244.382 151.734 226.125 133.477C207.828 115.181 207.828 85.4094 226.125 67.1124C244.384 48.8535 274.233 48.8553 292.49 67.1124C310.787 85.4094 310.787 115.18 292.49 133.477ZM348.92 18.0223L327.89 39.0521C325.867 41.0756 322.574 41.0756 320.55 39.0521C318.526 37.0285 318.526 33.7356 320.55 31.712L341.58 10.6819C342.56 9.70157 343.863 9.16179 345.25 9.16179C349.863 9.1624 352.167 14.7748 348.92 18.0223Z" fill="#A9021E"/>
<g clip-path="url(#clip2)">
<path d="M279.136 103.745C279.136 114.411 270.489 123.059 259.822 123.059C249.155 123.059 240.508 114.411 240.508 103.745C240.508 100.076 241.53 96.6451 243.308 93.7249C243.308 93.7249 245.767 98.973 249.992 97.2766C251.654 96.6101 253.545 94.7383 251.762 91.6504C249.838 88.3209 250.859 83.6185 255.098 81.8188C259.822 79.8136 259.822 73.1702 259.822 73.1702C260.297 73.4751 267.285 78.1074 264.721 84.0726C263.189 87.6369 263.006 91.9564 266.191 92.9113C270.003 94.0552 272.015 88.7662 272.015 88.7662C276.36 92.3072 279.136 97.7014 279.136 103.745Z" fill="#FCD703"/>
<path d="M279.136 103.745C279.136 114.411 270.489 123.059 259.822 123.059V73.1702C260.298 73.4751 267.285 78.1074 264.721 84.0726C263.19 87.6369 263.006 91.9564 266.192 92.9113C270.003 94.0552 272.016 88.7662 272.016 88.7662C276.36 92.3072 279.136 97.7014 279.136 103.745Z" fill="#FE9100"/>
<path d="M269.098 113.785C269.098 119.623 264.176 123.059 259.822 123.059C254.701 123.059 250.549 118.907 250.547 113.787C250.547 113.785 250.547 113.785 250.547 113.783C250.523 111.852 250.94 109.569 252.103 106.92L255.894 108.029C255.894 104.174 257.946 101.581 259.822 100.017C261.398 98.703 262.852 98.1145 262.852 98.1145C263.328 103.848 266.691 107.182 267.867 109.292C268.886 111.12 269.098 112.253 269.098 113.785Z" fill="#FF7B49"/>
<path d="M269.098 113.785C269.098 119.623 264.177 123.059 259.822 123.059V100.017C261.399 98.703 262.852 98.1145 262.852 98.1145C263.328 103.848 266.691 107.182 267.868 109.292C268.886 111.12 269.098 112.253 269.098 113.785Z" fill="#FD435B"/>
</g>
</g>
<defs>
<linearGradient id="paint0_linear" x1="95.7742" y1="201.568" x2="152.427" y2="227.985" gradientUnits="userSpaceOnUse">
<stop stop-color="white" stop-opacity="0.2"/>
<stop offset="1" stop-color="white" stop-opacity="0"/>
</linearGradient>
<clipPath id="clip0">
<rect width="79.8219" height="79.8219" fill="white" transform="translate(81.8855 172.948)"/>
</clipPath>
<clipPath id="clip1">
<rect width="156.318" height="156.318" fill="white" transform="translate(203.281)"/>
</clipPath>
<clipPath id="clip2">
<rect width="49.8887" height="49.8887" fill="white" transform="translate(234.878 73.1702)"/>
</clipPath>
</defs>
</svg>
